<svg width="48" height="48" viewBox="0 0 48 48"  xmlns="http://www.w3.org/2000/svg">
<path d="M47.3334 8.32111C47.3334 6.81337 46.1068 5.58673 44.599 5.58673H36.9884C36.485 5.58673 36.0769 5.99479 36.0769 6.49819C36.0769 7.00159 36.485 7.40965 36.9884 7.40965H44.599C45.1016 7.40965 45.5105 7.81853 45.5105 8.32111V13.7956H2.48966V8.32111C2.48966 7.81853 2.89854 7.40965 3.40112 7.40965H14.7564C15.2598 7.40965 15.6679 7.00159 15.6679 6.49819C15.6679 5.99479 15.2598 5.58673 14.7564 5.58673H3.40112C1.89339 5.58673 0.666748 6.81337 0.666748 8.32111V14.7071C0.666748 14.7191 0.668115 14.7307 0.668571 14.7426C0.668115 14.7545 0.666748 14.7661 0.666748 14.7782V17.9625C0.666748 19.5173 1.47448 20.8861 2.69155 21.6742C2.67879 21.7349 2.67196 21.7977 2.67196 21.8621V45.5088H1.57821C1.07481 45.5088 0.666748 45.9169 0.666748 46.4203C0.666748 46.9237 1.07481 47.3317 1.57821 47.3317H46.422C46.9254 47.3317 47.3334 46.9237 47.3334 46.4203C47.3334 45.9169 46.9254 45.5088 46.422 45.5088H45.3282V21.8619C45.3282 21.7975 45.3213 21.7347 45.3086 21.674C46.5257 20.8859 47.3334 19.5171 47.3334 17.9623V14.778C47.3334 14.7659 47.332 14.7544 47.3316 14.7424C47.332 14.7306 47.3334 14.7189 47.3334 14.7069V8.32111ZM32.3854 15.6184H38.0365V17.9623C38.0365 19.3942 36.8716 20.5592 35.4397 20.5592H34.9822C33.5503 20.5592 32.3854 19.3942 32.3854 17.9623V15.6184ZM24.9114 15.6184H30.5626V17.9623C30.5626 19.3942 29.3976 20.5592 27.9657 20.5592H27.5083C26.0764 20.5592 24.9114 19.3942 24.9114 17.9623V15.6184ZM17.4375 15.6184H23.0886V17.9623C23.0886 19.3942 21.9237 20.5592 20.4918 20.5592H20.0343C18.6024 20.5592 17.4375 19.3942 17.4375 17.9623V15.6184V15.6184ZM9.96353 15.6184H15.6147V17.9623C15.6147 19.3942 14.4497 20.5592 13.0178 20.5592H12.5604C11.1285 20.5592 9.96353 19.3942 9.96353 17.9623V15.6184V15.6184ZM2.48966 17.9623V15.6184H8.14071V17.9623C8.14071 19.3942 6.97577 20.5592 5.54387 20.5592H5.08641C3.6546 20.5592 2.48966 19.3942 2.48966 17.9623ZM21.8126 45.5086H9.41675V27.644H21.8126V45.5086ZM43.5053 38.9461H29.1042V27.644H43.5053V38.9461ZM43.5058 25.8211H43.5053H28.1928C27.6894 25.8211 27.2813 26.2292 27.2813 26.7326V39.8576C27.2813 40.361 27.6894 40.769 28.1928 40.769H43.5053V45.5086H23.6355V26.7326C23.6355 26.2292 23.2274 25.8211 22.724 25.8211H8.50529C8.00189 25.8211 7.59383 26.2292 7.59383 26.7326V45.5086H4.49487V22.3413C4.68856 22.3674 4.8858 22.3821 5.0865 22.3821H5.54396C6.97222 22.3821 8.2437 21.7005 9.05226 20.6461C9.86072 21.7005 11.1322 22.3821 12.5605 22.3821H13.018C14.4463 22.3821 15.7177 21.7005 16.5263 20.6461C17.3348 21.7005 18.6063 22.3821 20.0346 22.3821H20.4921C21.9203 22.3821 23.1918 21.7005 24.0004 20.6461C24.8088 21.7005 26.0803 22.3821 27.5086 22.3821H27.9661C29.3944 22.3821 30.6658 21.7005 31.4744 20.6461C32.2829 21.7005 33.5544 22.3821 34.9827 22.3821H35.4402C36.8684 22.3821 38.1399 21.7005 38.9485 20.6461C39.7569 21.7005 41.0284 22.3821 42.4567 22.3821H42.9142C43.1149 22.3821 43.3122 22.3674 43.5058 22.3413V25.8211V25.8211ZM45.5104 17.9623C45.5105 19.3942 44.3456 20.5592 42.9137 20.5592H42.4562C41.0243 20.5592 39.8594 19.3942 39.8594 17.9623V15.6184H45.5104V17.9623Z" />
<path d="M19.5402 35.9319C19.3707 35.7624 19.1355 35.6649 18.8958 35.6649C18.6561 35.6649 18.421 35.7624 18.2514 35.9319C18.0819 36.1014 17.9844 36.3366 17.9844 36.5763C17.9844 36.816 18.0819 37.0512 18.2514 37.2207C18.421 37.3902 18.6561 37.4878 18.8958 37.4878C19.1355 37.4878 19.3707 37.3902 19.5402 37.2207C19.7098 37.0512 19.8073 36.816 19.8073 36.5763C19.8073 36.3366 19.7098 36.1014 19.5402 35.9319Z" />
<path d="M28.5959 1.72C27.1915 0.315627 24.9063 0.315536 23.5018 1.72L19.404 5.81783C18.7236 6.49814 18.3489 7.40276 18.3489 8.3649C18.3489 9.32704 18.7236 10.2317 19.4039 10.912C20.1062 11.6142 21.0286 11.9653 21.9511 11.9653C22.8734 11.9653 23.7958 11.6142 24.4981 10.912L26.5464 8.86365C26.5465 8.86347 26.5468 8.86329 26.5471 8.86301C26.5474 8.86274 26.5474 8.86256 26.5477 8.86228L28.5959 6.81405C29.2763 6.13383 29.651 5.22921 29.651 4.26707C29.651 3.30494 29.2763 2.40041 28.5959 1.72ZM23.209 9.62299C22.5154 10.3168 21.3867 10.3167 20.693 9.62299C20.3568 9.28702 20.1718 8.84013 20.1718 8.3649C20.1718 7.88967 20.3568 7.44296 20.693 7.10691L22.0973 5.70253L24.6134 8.21861L23.209 9.62299ZM27.3069 5.52516L25.9025 6.92954L23.3864 4.41345L24.7908 3.00899C25.1376 2.66209 25.5932 2.48873 26.0489 2.48873C26.5045 2.48873 26.9601 2.66218 27.3069 3.00899C27.643 3.34504 27.828 3.79184 27.828 4.26707C27.828 4.74231 27.643 5.1891 27.3069 5.52516Z" />
<path d="M39.6284 32.3768H37.2063V29.9547C37.2063 29.4513 36.7982 29.0433 36.2948 29.0433C35.7914 29.0433 35.3834 29.4513 35.3834 29.9547V32.3768H32.9613C32.4579 32.3768 32.0498 32.7849 32.0498 33.2883C32.0498 33.7917 32.4579 34.1998 32.9613 34.1998H35.3834V36.6219C35.3834 37.1253 35.7914 37.5333 36.2948 37.5333C36.7982 37.5333 37.2063 37.1253 37.2063 36.6219V34.1998H39.6284C40.1318 34.1998 40.5399 33.7917 40.5399 33.2883C40.5399 32.7849 40.1318 32.3768 39.6284 32.3768Z" />
<path d="M12.8802 30.1353C12.3768 30.1353 11.9688 30.5434 11.9688 31.0468V38.6423C11.9688 39.1457 12.3768 39.5537 12.8802 39.5537C13.3836 39.5537 13.7917 39.1457 13.7917 38.6423V31.0468C13.7917 30.5434 13.3836 30.1353 12.8802 30.1353Z" />
<path d="M13.5246 41.461C13.3551 41.2915 13.1199 41.1949 12.8802 41.1949C12.6405 41.1949 12.4053 41.2915 12.2358 41.461C12.0663 41.6315 11.9688 41.8657 11.9688 42.1063C11.9688 42.3461 12.0663 42.5812 12.2358 42.7507C12.4053 42.9203 12.6405 43.0178 12.8802 43.0178C13.1199 43.0178 13.3551 42.9203 13.5246 42.7507C13.6941 42.5803 13.7917 42.3461 13.7917 42.1063C13.7917 41.8657 13.6941 41.6315 13.5246 41.461Z" />
</svg>
