<svg width="48" height="48" viewBox="0 0 48 48" xmlns="http://www.w3.org/2000/svg">
<path d="M38.8575 46.1311L36.5719 39.3862C36.4466 39.0162 36.0993 38.7672 35.7087 38.7672H35.576V25.5496C35.576 19.1668 30.3833 13.9739 24.0003 13.9739C17.6174 13.9739 12.4246 19.1667 12.4246 25.5496V38.7672H12.292C11.9013 38.7672 11.554 39.0162 11.4287 39.3862L9.14322 46.1311C9.04888 46.4094 9.09454 46.7159 9.26572 46.9547C9.4369 47.1935 9.71263 47.3351 10.0065 47.3351H37.9942C38.2881 47.3351 38.5638 47.1935 38.735 46.9547C38.9062 46.7159 38.9519 46.4094 38.8575 46.1311ZM14.2476 25.5497C14.2476 20.1721 18.6227 15.797 24.0003 15.797C29.378 15.797 33.7531 20.1721 33.7531 25.5497V38.7673H14.2476V25.5497ZM11.2778 45.5122L12.9455 40.5903H35.055L36.7229 45.5122H11.2778Z" />
<path d="M24.0004 0.666626C23.497 0.666626 23.0889 1.07479 23.0889 1.57812V7.047C23.0889 7.55033 23.4969 7.9585 24.0004 7.9585C24.5037 7.9585 24.9119 7.55033 24.9119 7.047V1.57812C24.9119 1.07479 24.5037 0.666626 24.0004 0.666626Z" />
<path d="M24.6447 9.95338C24.4753 9.78384 24.2401 9.68723 24.0004 9.68723C23.7606 9.68723 23.5255 9.78384 23.3559 9.95338C23.1864 10.1238 23.0889 10.358 23.0889 10.5987C23.0889 10.8384 23.1863 11.0727 23.3559 11.2431C23.5255 11.4126 23.7606 11.5093 24.0004 11.5093C24.2401 11.5093 24.4753 11.4126 24.6447 11.2431C24.8142 11.0727 24.9119 10.8384 24.9119 10.5987C24.9119 10.358 24.8143 10.1238 24.6447 9.95338Z" />
<path d="M9.37122 25.0638H5.18591C4.68258 25.0638 4.27441 25.472 4.27441 25.9753C4.27441 26.4786 4.68258 26.8868 5.18591 26.8868H9.37132C9.87464 26.8868 10.2828 26.4786 10.2828 25.9753C10.2828 25.472 9.87455 25.0638 9.37122 25.0638Z" />
<path d="M2.22246 25.3309C2.05301 25.1613 1.81785 25.0638 1.57812 25.0638C1.3384 25.0638 1.10323 25.1613 0.933694 25.3309C0.764156 25.5005 0.666626 25.7356 0.666626 25.9753C0.666626 26.215 0.764065 26.4502 0.933694 26.6196C1.10323 26.7892 1.3384 26.8868 1.57812 26.8868C1.81785 26.8868 2.05301 26.7893 2.22246 26.6196C2.392 26.4502 2.48962 26.215 2.48962 25.9753C2.48962 25.7356 2.392 25.5004 2.22246 25.3309Z" />
<path d="M17.8635 8.77789L16.628 5.79538C16.4353 5.33034 15.9022 5.10985 15.4371 5.30208C14.9719 5.49477 14.7512 6.02799 14.9438 6.49304L16.1792 9.47554C16.3247 9.82656 16.664 10.0385 17.0217 10.0385C17.1379 10.0385 17.256 10.0161 17.3702 9.96885C17.8353 9.77606 18.0561 9.24284 17.8635 8.77789Z" />
<path d="M7.50039 18.1541L4.51788 16.9187C4.05265 16.7265 3.51961 16.947 3.32692 17.412C3.13432 17.8771 3.35518 18.4102 3.82022 18.6029L6.80273 19.8384C6.91685 19.8855 7.03498 19.908 7.15119 19.908C7.50886 19.908 7.84821 19.6961 7.99369 19.3451C8.18629 18.8799 7.96543 18.3468 7.50039 18.1541Z" />
<path d="M43.1946 25.0638H39.0092C38.5058 25.0638 38.0977 25.472 38.0977 25.9753C38.0977 26.4786 38.5058 26.8868 39.0092 26.8868H43.1946C43.6979 26.8868 44.1061 26.4786 44.1061 25.9753C44.1061 25.472 43.6979 25.0638 43.1946 25.0638Z" />
<path d="M47.0667 25.3309C46.8972 25.1613 46.6621 25.0638 46.4224 25.0638C46.1826 25.0638 45.9475 25.1613 45.7779 25.3309C45.6084 25.5005 45.5109 25.7356 45.5109 25.9753C45.5109 26.215 45.6083 26.4502 45.7779 26.6196C45.9475 26.7892 46.1826 26.8868 46.4224 26.8868C46.6621 26.8868 46.8972 26.7893 47.0667 26.6196C47.2362 26.4502 47.3339 26.215 47.3339 25.9753C47.3339 25.7356 47.2363 25.5004 47.0667 25.3309Z" />
<path d="M42.0249 7.95033C41.6689 7.59448 41.0919 7.59448 40.7358 7.95033L36.251 12.4353C35.895 12.7912 35.895 13.3683 36.251 13.7244C36.4291 13.9024 36.6623 13.9914 36.8956 13.9914C37.1289 13.9914 37.3621 13.9023 37.5401 13.7244L42.0249 9.23946C42.3808 8.88352 42.3808 8.30636 42.0249 7.95033Z" />
<path d="M11.7494 12.4352L7.26458 7.95048C6.90855 7.59463 6.33157 7.59463 5.97545 7.95048C5.61951 8.30642 5.61951 8.88358 5.97545 9.23961L10.4604 13.7244C10.6384 13.9024 10.8716 13.9914 11.1049 13.9914C11.3381 13.9914 11.5714 13.9024 11.7494 13.7244C12.1054 13.3684 12.1054 12.7913 11.7494 12.4352Z" />
<path d="M32.5634 5.30203C32.0982 5.10989 31.5651 5.33038 31.3724 5.79533L30.137 8.77784C29.9444 9.24288 30.1652 9.77601 30.6303 9.9688C30.7444 10.016 30.8625 10.0384 30.9787 10.0384C31.3364 10.0384 31.6758 9.82651 31.8212 9.47549L33.0567 6.49299C33.2493 6.02776 33.0284 5.49472 32.5634 5.30203Z" />
<path d="M44.6735 17.4119C44.4808 16.9468 43.9477 16.7263 43.4826 16.9186L40.5 18.1541C40.0349 18.3467 39.8141 18.88 40.0067 19.345C40.1522 19.696 40.4916 19.908 40.8492 19.908C40.9655 19.908 41.0836 19.8855 41.1977 19.8383L44.1802 18.6029C44.6453 18.4102 44.8661 17.877 44.6735 17.4119Z" />
<path d="M24.0004 19.7175C22.4926 19.7175 21.266 20.9442 21.266 22.4519V26.827C21.266 28.3348 22.4927 29.5614 24.0004 29.5614C25.5081 29.5614 26.7348 28.3347 26.7348 26.827V22.4519C26.7348 20.9442 25.5082 19.7175 24.0004 19.7175ZM24.9119 26.827C24.9119 27.3296 24.503 27.7385 24.0004 27.7385C23.4978 27.7385 23.0889 27.3296 23.0889 26.827V22.4519C23.0889 21.9493 23.4978 21.5404 24.0004 21.5404C24.503 21.5404 24.9119 21.9493 24.9119 22.4519V26.827Z" />
<path d="M24.0004 31.3846C22.4926 31.3846 21.266 32.6112 21.266 34.1189C21.266 35.6267 22.4927 36.8533 24.0004 36.8533C25.5081 36.8533 26.7348 35.6267 26.7348 34.1189C26.7348 32.6112 25.5082 31.3846 24.0004 31.3846ZM24.0004 35.0304C23.4978 35.0304 23.0889 34.6215 23.0889 34.1189C23.0889 33.6163 23.4978 33.2075 24.0004 33.2075C24.503 33.2075 24.9119 33.6163 24.9119 34.1189C24.9119 34.6215 24.503 35.0304 24.0004 35.0304Z" />
</svg>
